<?xml version="1.0" encoding="UTF-8" standalone="no"?>
<!-- Creator: CorelDRAW -->
<svg
   xmlns:dc="http://purl.org/dc/elements/1.1/"
   xmlns:cc="http://creativecommons.org/ns#"
   xmlns:rdf="http://www.w3.org/1999/02/22-rdf-syntax-ns#"
   xmlns:svg="http://www.w3.org/2000/svg"
   xmlns="http://www.w3.org/2000/svg"
   xmlns:sodipodi="http://sodipodi.sourceforge.net/DTD/sodipodi-0.dtd"
   xmlns:inkscape="http://www.inkscape.org/namespaces/inkscape"
   xml:space="preserve"
   width="297mm"
   height="210mm"
   style="shape-rendering:geometricPrecision; text-rendering:geometricPrecision; image-rendering:optimizeQuality; fill-rule:evenodd; clip-rule:evenodd"
   viewBox="0 0 297 210"
   id="svg2472"
   sodipodi:version="0.32"
   inkscape:version="0.46"
   sodipodi:docname="Grafik1.svg"
   inkscape:output_extension="org.inkscape.output.svg.inkscape"
   inkscape:export-filename="/Users/murphy/Divided Space/Dateien/Grafik1.png"
   inkscape:export-xdpi="10"
   inkscape:export-ydpi="10"><metadata
   id="metadata2485"><rdf:RDF><cc:Work
       rdf:about=""><dc:format>image/svg+xml</dc:format><dc:type
         rdf:resource="http://purl.org/dc/dcmitype/StillImage" /></cc:Work></rdf:RDF></metadata><sodipodi:namedview
   inkscape:window-height="480"
   inkscape:window-width="640"
   inkscape:pageshadow="2"
   inkscape:pageopacity="0.0"
   guidetolerance="10.0"
   gridtolerance="10.0"
   objecttolerance="10.0"
   borderopacity="1.0"
   bordercolor="#666666"
   pagecolor="#ffffff"
   id="base"
   showgrid="false" />
 <defs
   id="defs2474"><inkscape:perspective
   sodipodi:type="inkscape:persp3d"
   inkscape:vp_x="0 : 372.04724 : 1"
   inkscape:vp_y="0 : 1000 : 0"
   inkscape:vp_z="1052.3622 : 372.04724 : 1"
   inkscape:persp3d-origin="526.18109 : 248.03149 : 1"
   id="perspective2487" />
  <style
   type="text/css"
   id="style2476">
   
    .fil0 {fill:blue;fill-opacity:0.501961}
    .fil1 {fill:red;fill-opacity:0.501961}
   
  </style>
 
  <metadata
   id="CorelCorpID_0Corel-Layer" />
  
  
 </defs>
 <polygon
   style="fill:#0000ff;fill-opacity:1"
   id="polygon2480"
   points="213.372,126.543 251.316,121.279 255.722,117.607 256.582,111.12 191.952,111.12 213.372,95.6976 251.316,100.961 255.722,104.633 256.582,111.12 191.952,111.12 213.372,126.543 "
   class="fil0"
   transform="translate(-8.2044199,-29.535912)"
   inkscape:export-xdpi="120.01695"
   inkscape:export-ydpi="120.01695"
   inkscape:export-filename="/Users/murphy/Divided Space/epic/server/public/fighter_light_blue.png" /><path
   style="fill:#0000ff;fill-opacity:1;opacity:1"
   id="path2482"
   d="M 110.50658,81.584088 L 111.77658,88.071188 L 124.75098,97.006388 L 102.35178,108.26719 L 77.01498,91.743188 C 83.69348,103.04079 97.93518,118.61229 105.65658,124.17919 L 150.94458,103.73849 L 210.06378,131.63619 C 210.35578,122.58009 226.53008,113.10179 230.74938,112.79599 L 183.74778,81.584188 L 110.50658,81.584088 L 111.77658,75.097088 L 124.75098,66.161788 L 102.35178,54.900988 L 77.01498,71.424988 C 83.69348,60.127388 97.93518,44.555788 105.65658,38.988988 L 150.94458,59.429788 L 210.06378,31.531988 C 210.35578,40.588088 226.53008,50.066388 230.74938,50.372188 L 183.74778,81.583988 L 110.50658,81.584088 L 110.50658,81.584088 z"
   class="fil1"
   inkscape:export-filename="/Users/murphy/Divided Space/epic/server/public/fighter_light_blue.png"
   inkscape:export-xdpi="120.01695"
   inkscape:export-ydpi="120.01695" />
</svg>